<?xml version="1.0" encoding="utf-8"?>
<!-- Svg Vector Icons : http://www.onlinewebfonts.com/icon -->
<!DOCTYPE svg PUBLIC "-//W3C//DTD SVG 1.1//EN" "http://www.w3.org/Graphics/SVG/1.1/DTD/svg11.dtd">
<svg version="1.1" xmlns="http://www.w3.org/2000/svg" xmlns:xlink="http://www.w3.org/1999/xlink" x="0px" y="0px" viewBox="0 0 1000 1000" enable-background="new 0 0 1000 1000" xml:space="preserve">
<metadata> Svg Vector Icons : http://www.onlinewebfonts.com/icon </metadata>
<g><g><g><g><g><path d="M532.9,10.2l-4.5-0.2c-10.1,0-21.7,3.1-35,11.1c0,0-255.4,222.8-266.5,233.9H86.6c-33.8,0-61.2,27.4-61.2,61.2v375.3c0,33.9,27.4,61.3,61.2,61.3h140.3c11.1,11,266.5,226,266.5,226c13.3,8.1,24.9,11.3,35,11.3l4.5-0.2c22.7-2.1,38.8-21.1,43.7-41.2V51.4C571.8,31.3,555.6,12.3,532.9,10.2z M515.3,917.3c-95.6-80.5-234-197.5-245.2-207.9c-11.5-11.5-27-17.8-43.2-17.8H86.6v-7.8V316.2h140.3c15.7,0,31.4-6.6,42.7-17.3c11.1-10.6,149.6-131.7,245.7-215.6L515.3,917.3L515.3,917.3z"/><path d="M670.9,607c-15.1,7.7-21.2,26-13.7,41.2c5.5,10.7,16.2,16.8,27.4,16.8c4.5,0,9.2-1.1,13.8-3.2c61.9-31.3,100.4-93.2,100.4-161.8s-38.5-130.5-100.4-161.8c-15.1-7.7-33.5-1.5-41.2,13.6c-7.5,15.1-1.5,33.5,13.7,41.2c41.1,20.8,66.6,61.7,66.6,107.1S712,586.3,670.9,607z"/><path d="M664.7,124.3c-16.4-3.3-32.8,7.6-35.9,24.2c-3.3,16.6,7.5,32.7,24.2,36C803.9,213.8,913.4,346.6,913.4,500S803.9,786.2,653,815.6c-16.6,3.2-27.4,19.2-24.2,36c2.9,14.6,15.7,24.7,29.9,24.7l6-0.6c179.6-34.9,310-192.9,310-375.6C974.7,317.4,844.3,159.3,664.7,124.3z"/></g></g></g></g><g></g><g></g><g></g><g></g><g></g><g></g><g></g><g></g><g></g><g></g><g></g><g></g><g></g><g></g><g></g></g>
</svg>